<svg width="540" height="52" viewBox="0 0 540 52" fill="none" xmlns="http://www.w3.org/2000/svg">
<path d="M0 43.44L5.67 35.39C9.13 39.04 14.5 42.1 21.27 42.1C27.01 42.1 29.81 39.42 29.81 36.59C29.81 27.8 1.55 33.83 1.55 15.13C1.55 6.86 8.62 0 20.17 0C27.97 0 34.45 2.38 39.3 6.93L33.49 14.68C29.52 10.95 24.22 9.24001 19.21 9.24001C14.72 9.24001 12.22 11.25 12.22 14.23C12.22 22.13 40.41 16.84 40.41 35.39C40.41 44.48 34.01 51.33 20.76 51.33C11.34 51.33 4.57 48.13 0.00999832 43.43L0 43.44Z" fill="white"/>
<path d="M46.06 32.4203C46.06 22.2103 53.12 13.5703 64.83 13.5703C76.54 13.5703 83.67 22.2103 83.67 32.4203C83.67 42.6303 76.61 51.3503 64.83 51.3503C53.05 51.3503 46.06 42.7103 46.06 32.4203ZM73.95 32.4203C73.95 26.8303 70.64 21.9903 64.82 21.9903C59 21.9903 55.77 26.8303 55.77 32.4203C55.77 38.0103 59.01 42.9303 64.82 42.9303C70.63 42.9303 73.95 38.0903 73.95 32.4203Z" fill="white"/>
<path d="M93.75 50.45V22.73H87.86V14.46H93.75V12.52C93.75 4.85 98.61 0 105.74 0C109.13 0 112.73 0.889998 115.01 3.35L111.48 8.94C110.52 7.97 109.27 7.45 107.58 7.45C105.01 7.45 103.17 9.16 103.17 12.52V14.46H110.38V22.73H103.17V50.45H93.75Z" fill="white"/>
<path d="M118.69 41.5099V22.7299H112.8V14.4599H118.69V4.62988H128.11V14.4599H135.32V22.7299H128.11V38.9699C128.11 41.2099 129.29 42.9199 131.35 42.9199C132.75 42.9199 134.07 42.3999 134.59 41.8799L136.58 49.0299C135.18 50.2999 132.68 51.3399 128.78 51.3399C122.23 51.3399 118.7 47.9099 118.7 41.4999L118.69 41.5099Z" fill="white"/>
<path d="M222.67 50.4501V46.7201C220.24 49.6301 216.05 51.3401 211.41 51.3401C205.74 51.3401 199.05 47.4701 199.05 39.4201C199.05 31.3701 205.75 27.8001 211.41 27.8001C216.12 27.8001 220.31 29.3601 222.67 32.2001V27.3601C222.67 23.7101 219.58 21.3201 214.87 21.3201C211.04 21.3201 207.51 22.7401 204.49 25.5701L200.96 19.2401C205.3 15.3701 210.9 13.5801 216.49 13.5801C224.58 13.5801 232.02 16.8601 232.02 27.2201V50.4701H222.67V50.4501ZM222.67 41.8101V37.3401C221.12 35.2501 218.18 34.2101 215.16 34.2101C211.48 34.2101 208.46 36.1501 208.46 39.6501C208.46 43.1501 211.48 44.9401 215.16 44.9401C218.18 44.9401 221.12 43.9001 222.67 41.8101Z" fill="white"/>
<path d="M242.39 50.4503V14.4603H251.74V19.3803C254.24 16.1803 258.66 13.5703 263.07 13.5703V22.8103C262.41 22.6603 261.52 22.5903 260.49 22.5903C257.4 22.5903 253.28 24.3803 251.73 26.6903V50.4603H242.38L242.39 50.4503Z" fill="white"/>
<path d="M267.7 32.4203C267.7 21.9903 275.28 13.5703 286.1 13.5703C296.92 13.5703 303.91 21.6203 303.91 33.3903V35.4803H277.49C278.08 40.0303 281.69 43.8203 287.72 43.8203C290.74 43.8203 294.93 42.4803 297.21 40.2403L301.33 46.3503C297.8 49.6303 292.2 51.3403 286.68 51.3403C275.86 51.3403 267.69 43.9603 267.69 32.4103L267.7 32.4203ZM286.1 21.0903C280.29 21.0903 277.78 25.4903 277.34 29.0603H294.86C294.64 25.6303 292.28 21.0903 286.1 21.0903Z" fill="white"/>
<path d="M327.8 50.45V0.75H362.54V10.06H338.25V20.57H362.02V29.88H338.25V50.44H327.8V50.45Z" fill="white"/>
<path d="M370.36 50.4501V17.1201H379.01V50.4501H370.36Z" fill="white"/>
<path d="M412.95 50.4496V28.6896C412.95 23.6996 410.37 21.9796 406.4 21.9796C402.72 21.9796 399.85 24.0696 398.3 26.2296V50.4496H388.95V14.4596H398.3V19.1496C400.58 16.3896 404.92 13.5596 410.74 13.5596C418.54 13.5596 422.29 18.0296 422.29 25.0296V50.4396H412.94L412.95 50.4496Z" fill="white"/>
<path d="M457.11 50.4502V45.8302C454.31 49.4102 450.41 51.3402 446.15 51.3402C437.17 51.3402 430.4 44.4902 430.4 32.4902C430.4 20.4902 437.1 13.5602 446.15 13.5602C450.35 13.5602 454.32 15.4202 457.11 19.0702V0.740234H466.53V50.4402H457.11V50.4502ZM457.11 38.8302V26.0902C455.57 23.7102 452.18 21.9902 449.01 21.9902C443.71 21.9902 440.03 26.2402 440.03 32.5002C440.03 38.7602 443.71 42.9302 449.01 42.9302C452.18 42.9302 455.56 41.2202 457.11 38.8302Z" fill="white"/>
<path d="M474.62 32.4203C474.62 21.9903 482.2 13.5703 493.02 13.5703C503.84 13.5703 510.83 21.6203 510.83 33.3903V35.4803H484.41C485 40.0303 488.61 43.8203 494.64 43.8203C497.66 43.8203 501.85 42.4803 504.13 40.2403L508.25 46.3503C504.72 49.6303 499.13 51.3403 493.61 51.3403C482.79 51.3403 474.62 43.9603 474.62 32.4103V32.4203ZM493.02 21.0903C487.21 21.0903 484.71 25.4903 484.26 29.0603H501.77C501.55 25.6303 499.2 21.0903 493.01 21.0903H493.02Z" fill="white"/>
<path d="M518.7 50.4503V14.4603H528.05V19.3803C530.55 16.1803 534.97 13.5703 539.38 13.5703V22.8103C538.72 22.6603 537.83 22.5903 536.8 22.5903C533.71 22.5903 529.59 24.3803 528.04 26.6903V50.4603H518.69L518.7 50.4503Z" fill="white"/>
<path d="M142.57 14.9203C142.57 14.9203 141.01 16.0903 143.22 19.2803C143.26 19.3403 143.3 19.4003 143.33 19.4603L158.95 49.5003C159.24 50.0603 159.83 50.4203 160.47 50.3803C160.88 50.3503 161.36 50.1903 161.83 49.7503C161.9 49.6803 161.96 49.6103 162.02 49.5303L167.04 42.9503C167.22 42.7003 167.39 42.4503 167.56 42.1803C167.82 41.7503 168.28 41.1503 167.21 39.8003C166.46 38.8503 148.4 18.7703 145.07 15.1503C144.62 14.6603 143.94 14.4103 143.29 14.5503C143.02 14.6103 142.76 14.7203 142.57 14.9203Z" fill="#9ABF14"/>
<path d="M155.19 20.2004C155.19 20.2004 153.98 21.8304 157.13 24.3504C157.19 24.3904 157.24 24.4404 157.29 24.4904L181.71 49.8404C182.17 50.3104 182.86 50.5004 183.48 50.2704C183.88 50.1204 184.31 49.8204 184.65 49.2404C184.7 49.1504 184.74 49.0604 184.78 48.9604L187.85 40.9204C187.96 40.6204 188.06 40.3204 188.14 40.0004C188.27 39.5004 188.56 38.7604 187.09 37.7304C186.06 37.0104 162.14 22.3104 157.75 19.6704C157.15 19.3104 156.41 19.2704 155.8 19.6004C155.55 19.7304 155.32 19.9204 155.19 20.1804V20.2004Z" fill="#9ABF14"/>
<path d="M181.42 27.6502L188.99 32.6202C189.42 32.9002 189.96 32.9902 190.44 32.8202C190.84 32.6702 191.25 32.3402 191.49 31.6202C192.04 29.9602 196.33 19.3702 196.7 18.4402C196.72 18.3902 196.74 18.3402 196.76 18.2802C196.85 17.9702 197.08 16.9702 196.51 16.4102C196.2 16.1102 195.83 15.8402 195.43 15.8102C194.97 15.7702 194.46 15.8902 194 16.2002L181.27 26.1602C181.27 26.1602 180.38 26.8202 181.41 27.6502H181.42Z" fill="#9ABF14"/>
<path d="M378.99 17.1201H370.36V50.9701H378.99V17.1201Z" fill="white"/>
<path d="M374.67 13.4702C377.575 13.4702 379.93 11.1152 379.93 8.21019C379.93 5.30517 377.575 2.9502 374.67 2.9502C371.765 2.9502 369.41 5.30517 369.41 8.21019C369.41 11.1152 371.765 13.4702 374.67 13.4702Z" fill="#9ABF14"/>
</svg>
